<svg xmlns="http://www.w3.org/2000/svg" width="22" height="17" viewBox="0 0 22 17" fill="white">
  <path d="M2.78843 16.5955C2.21806 16.5955 1.72996 16.3926 1.32413 15.9868C0.918306 15.581 0.715047 15.0925 0.714355 14.5214V2.077C0.714355 1.50663 0.917615 1.01853 1.32413 0.612707C1.73065 0.20688 2.21875 0.00362105 2.78843 0.00292969H19.381C19.9514 0.00292969 20.4398 0.206189 20.8464 0.612707C21.2529 1.01923 21.4558 1.50732 21.4551 2.077V14.5214C21.4551 15.0918 21.2522 15.5803 20.8464 15.9868C20.4405 16.3933 19.9521 16.5962 19.381 16.5955H2.78843ZM11.0847 9.15478C11.1711 9.15478 11.2621 9.14165 11.3575 9.11537C11.4529 9.0891 11.5434 9.05039 11.6292 8.99923L18.9662 4.41034C19.1045 4.32392 19.2082 4.21607 19.2773 4.08678C19.3465 3.9575 19.381 3.81473 19.381 3.65849C19.381 3.31281 19.2341 3.05355 18.9403 2.88071C18.6465 2.70787 18.344 2.71651 18.0329 2.90663L11.0847 7.26219L4.13658 2.90663C3.82547 2.71651 3.523 2.71236 3.22917 2.89419C2.93534 3.07602 2.78843 3.33078 2.78843 3.65849C2.78843 3.83132 2.823 3.98273 2.89213 4.11271C2.96127 4.24268 3.06497 4.34189 3.20324 4.41034L10.5403 8.99923C10.6267 9.05108 10.7176 9.09014 10.813 9.11641C10.9084 9.14268 10.999 9.15547 11.0847 9.15478Z" fill="white"/>
</svg>
